<?xml version="1.0" encoding="UTF-8" standalone="no"?>
<!DOCTYPE svg PUBLIC "-//W3C//DTD SVG 1.1//EN" "http://www.w3.org/Graphics/SVG/1.1/DTD/svg11.dtd">
<!-- Created with Vectornator (http://vectornator.io/) -->
<svg height="100%" stroke-miterlimit="10" style="fill-rule:nonzero;clip-rule:evenodd;stroke-linecap:round;stroke-linejoin:round;" version="1.1" viewBox="2.55051e-15 0 451.984 500" width="100%" xml:space="preserve" xmlns="http://www.w3.org/2000/svg" xmlns:vectornator="http://vectornator.io" xmlns:xlink="http://www.w3.org/1999/xlink">
<defs/>
<clipPath id="ArtboardFrame">
<rect height="500" width="451.984" x="2.55051e-15" y="0"/>
</clipPath>
<g clip-path="url(#ArtboardFrame)" id="Layer" vectornator:layerName="Layer">
<g opacity="1" vectornator:layerName="g">
<path d="M100.697 365.707C98.1986 366.104 95.7211 366.5 93.2246 366.895C87.2929 367.815 81.1921 368.82 76.0786 371.736C73.3072 373.325 70.9417 375.395 68.8722 377.712C68.7306 377.666 68.5678 377.639 68.4241 377.594C64.0715 376.482 59.535 375.358 55.0895 375.545C56.5819 374.315 58.0764 373.064 59.5689 371.834C62.0125 369.824 64.4795 367.799 67.439 366.524C69.0878 365.819 70.8466 365.367 72.6202 365.011C81.8453 363.102 91.5884 363.346 100.697 365.707Z" fill="#2e2c43" fill-rule="nonzero" opacity="1" stroke="none" vectornator:layerName="path"/>
<path d="M189.412 498.919C188.435 499.045 187.463 499.112 186.478 499.025C184.609 498.858 182.713 498.133 181.618 496.699C181.062 495.963 180.72 495.065 180.056 494.419C179.525 493.933 178.821 493.611 178.113 493.366C173.649 491.712 168.353 491.605 164.745 488.651C160.682 485.329 160.301 479.656 160.215 474.609C160.12 468.604 160.005 462.599 159.91 456.593C159.902 456 159.876 455.346 159.492 454.867C159.05 454.289 158.215 454.095 157.462 453.924C148.66 451.981 140.031 447.726 135.146 440.683C138.044 440.133 140.87 439.391 143.631 438.375C144.901 440.353 146.956 441.95 149.233 442.942C152.634 444.432 156.45 444.809 160.215 444.991C163.977 445.194 168.233 445.459 170.617 448.182C172.129 449.924 172.469 452.277 172.757 454.497C173.862 463.445 174.716 472.421 175.344 481.402C175.418 482.652 175.511 483.923 175.959 485.113C176.948 487.692 179.47 489.425 181.701 491.22C184.582 493.489 187.18 496.088 189.412 498.919Z" fill="#2e2c43" fill-rule="nonzero" opacity="1" stroke="none" vectornator:layerName="path"/>
<path d="M342.346 426.901C342.263 427.28 342.016 427.612 341.773 427.926C340.356 429.622 338.426 430.926 336.26 431.665C336.471 433.036 336.289 434.446 335.522 435.617C334.662 436.975 332.896 437.906 331.239 437.69C330.22 440.017 328.709 442.32 326.147 442.752C323.752 443.153 321.479 441.738 319.731 440.179C315.882 436.751 312.96 432.221 308.151 430.07C304.426 428.431 300.052 428.467 296.057 429.443C295.053 429.681 294.087 429.979 293.121 430.315C290.216 431.323 287.46 432.684 284.743 434.028C280.755 435.981 276.787 437.955 272.798 439.925C267.365 442.612 261.414 445.371 255.362 444.406C250.293 443.583 246.164 440.316 242.3 437.157C238.102 433.694 233.88 430.248 229.682 426.805C235.485 421.931 240.41 416.152 244.655 410.013C247.845 405.394 250.805 400.46 254.51 396.211C258.404 398.509 261.753 401.662 264.83 404.88C266.486 406.608 268.12 408.394 269.796 410.125C272.231 412.659 274.798 415.083 277.736 417.124C281.488 419.723 286.044 421.611 290.652 421.837C292.113 421.907 293.582 421.807 295.021 421.512C297.901 420.925 300.534 419.595 303.124 418.285C307.031 416.309 310.918 414.332 314.803 412.374C320.786 415.311 326.929 417.949 333.211 420.287C333.691 417.281 332.818 414.095 330.808 411.677C333.15 411.83 335.281 413.199 336.731 414.936C338.202 416.656 339.094 418.731 339.991 420.768C340.665 422.334 341.339 423.921 342.035 425.487C342.236 425.936 342.434 426.426 342.346 426.901Z" fill="#2e2c43" fill-rule="nonzero" opacity="1" stroke="none" vectornator:layerName="path"/>
<path d="M440.531 249.236C440.036 242.272 438.521 235.125 434.225 229.375C429.604 223.17 422.296 219.248 415.244 215.512C422.926 223.401 430.109 232.491 431.473 243.063C432.022 247.212 431.604 251.351 430.45 255.339C428.342 262.712 423.685 269.579 417.77 274.966C408.678 283.303 396.91 288.595 385.03 292.944C373.236 297.238 361.073 300.749 348.571 302.613C332.554 304.996 316.154 304.639 300.158 306.966C298.391 307.206 296.622 307.503 294.871 307.821C264.974 313.42 238.003 331.18 222.098 355.346C225.649 341.028 231.95 327.302 242.484 316.466C256.478 302.061 279.137 293.848 298.968 299.912C293.527 294.702 294.258 285.747 298.721 279.773C303.183 273.799 310.48 270.224 317.712 267.452C344.87 257.005 375.608 254.762 404.19 261.158C395.585 252.094 383.379 246.841 372.735 239.901C362.09 232.96 352.209 222.741 352.478 210.658C352.742 198.288 363.428 188.419 374.211 181.16C385.66 173.456 398.113 167.008 411.204 162.009C424.275 157.009 437.988 153.44 451.984 151.438C425.666 147.358 398.961 143.184 374.801 132.652C362.077 127.107 348.937 117.937 348.043 104.915C347.277 93.9707 355.556 84.3292 364.383 77.0333C374.942 68.3073 386.981 61.1116 399.906 55.7978C370.03 63.5828 340.585 72.8844 311.781 83.6358C274.59 97.5066 238.459 113.806 203.728 132.356C180.758 144.618 158.046 158.176 140.819 176.872C135.48 182.669 130.725 189.051 126.798 195.819C120.012 207.507 115.719 220.353 115.252 233.404C115.167 235.987 111.47 236.805 110.178 234.498L104.316 223.938C101.803 231.579 99.5684 243.759 105.276 249.729C111.005 255.701 118.48 259.955 125.168 264.979C156.951 288.858 168.757 332.661 154.389 367.96C154.376 368.19 154.342 368.418 154.308 368.648C154.008 369.207 153.708 369.769 153.389 370.31L153.389 370.329C150.987 374.488 148.21 378.415 145.032 382.057C139.76 388.107 133.313 393.466 125.5 396.27C118.027 398.935 109.747 399.087 101.854 397.841C96.9662 397.067 92.0112 395.694 87.9926 393.083C86.5784 391.079 85.1663 389.054 83.7521 387.048C83.695 386.97 83.657 386.911 83.5999 386.83C85.9252 383.992 88.5845 381.458 91.8674 379.584C97.0021 376.67 103.084 375.663 109.013 374.743C111.512 374.346 114.009 373.952 116.486 373.555C107.377 371.195 97.6553 370.95 88.4302 372.859C86.6355 373.213 84.8788 373.665 83.2299 374.37C80.2705 375.645 77.8035 377.672 75.381 379.682C75.2732 379.772 75.1653 379.863 75.0554 379.953C73.1571 378.865 71.003 378.279 68.8701 377.715C68.7285 377.67 68.5657 377.643 68.4219 377.598C64.0694 376.486 59.5329 375.362 55.0873 375.549C53.6203 375.612 52.1638 375.808 50.7179 376.199C48.456 376.818 46.3717 377.904 44.1986 378.757C37.8885 381.267 30.7709 382.033 24.0085 380.88C19.9836 380.204 15.9312 378.876 11.9127 379.544C6.99992 380.34 3.16316 383.988 0.567264 387.944C0.364328 388.261 0.161392 388.557 0.0789491 388.917C-0.123987 389.596 0.104316 390.317 0.313594 390.999C1.35153 394.173 2.36832 397.348 3.38723 400.523C4.83527 400.458 6.25582 400.126 7.58759 399.578C9.06522 403.004 9.91079 406.65 10.0968 410.319C18.6053 410.158 26.2598 414.863 32.9588 419.733C39.6769 424.603 46.4499 429.993 54.7745 431.606C60.3869 432.684 66.3566 431.804 71.4258 429.349C76.3386 432.234 81.8348 434.246 87.4726 435.613C94.6768 437.344 102.124 438.071 109.542 438.585C118.807 439.247 128.402 439.562 137.45 437.874C140.348 437.324 143.174 436.582 145.935 435.566C147.206 437.544 149.26 439.139 151.535 440.133C154.936 441.622 158.754 442 162.517 442.182C166.279 442.385 170.535 442.65 172.919 445.373C174.431 447.115 174.771 449.468 175.059 451.688C176.162 460.636 177.018 469.612 177.646 478.593C177.72 479.842 177.813 481.113 178.261 482.304C179.25 484.883 181.772 486.616 184.003 488.411C186.886 490.68 189.484 493.279 191.716 496.11L192.063 496.53C192.947 497.685 193.847 498.917 195.238 499.502C196.145 499.891 197.172 499.96 198.159 499.99C202.136 500.088 206.19 499.499 209.674 497.713C214.794 495.086 218.204 489.828 218.326 484.39C218.447 478.953 215.265 473.564 210.287 470.733C211.76 473.489 212.581 476.538 212.633 479.609C212.644 480.165 212.61 480.758 212.253 481.219C211.496 482.198 209.725 481.807 208.911 480.866C208.097 479.925 207.9 478.67 207.408 477.534C206.389 475.126 203.977 473.265 201.218 472.786C198.481 472.307 195.5 473.216 193.6 475.118C197.181 463.905 198.644 452.226 200.104 440.603C200.29 439.116 200.478 437.631 200.605 436.122C209.065 435 217.138 431.578 224.025 426.854C225.829 425.618 227.53 424.322 229.177 422.925C234.98 418.051 239.905 412.272 244.15 406.133C247.34 401.515 250.299 396.58 254.005 392.331C257.899 394.629 261.247 397.782 264.325 401C265.98 402.729 267.612 404.514 269.291 406.245C271.726 408.779 274.292 411.205 277.231 413.244C280.983 415.843 285.538 417.731 290.147 417.957C291.607 418.028 293.077 417.927 294.518 417.633C297.397 417.045 300.031 415.715 302.621 414.405C306.527 412.429 310.415 410.453 314.3 408.494C315.533 407.864 316.763 407.253 317.995 406.624C322.031 404.577 326.13 402.495 330.599 401.505C335.089 400.517 340.05 400.719 343.944 402.998C347.339 404.984 349.546 408.292 352.323 410.977C355.08 413.68 359.12 415.947 362.956 414.849C365.787 414.048 367.651 411.704 369.209 409.307C370.843 408.869 372.302 407.868 373.224 406.532C373.989 405.381 374.376 404.019 374.308 402.674C376.53 401.689 378.181 399.489 378.519 397.148C378.986 393.989 377.411 390.826 375.13 388.453C372.83 386.08 369.873 384.383 366.956 382.707C369.08 385.628 369.755 389.42 368.778 392.822C360.635 391.256 353.75 386.436 346.901 382.057C340.031 377.696 332.404 373.549 324.084 373.68C326.565 376.14 327.618 379.776 326.794 383.053C320.511 381.424 313.749 381.383 307.449 382.955C306.318 383.245 305.164 383.591 304.278 384.296C302.767 385.506 302.236 387.571 300.57 388.583C302.904 381.585 303.004 373.959 300.843 366.915C300.406 365.514 299.907 364.127 299.089 362.9C297.116 359.833 293.635 357.918 290.246 356.201C295.839 348.461 304.394 342.723 313.362 338.405C334.376 328.253 358.257 324.719 380.701 317.741C403.165 310.764 425.807 298.832 435.46 278.732C439.246 270.864 440.766 262.199 440.696 253.549C440.681 252.098 440.637 250.658 440.531 249.236ZM380.354 254.107C307.576 223.765 228.621 207.845 148.922 207.338C228.575 202.437 310.117 218.942 380.354 254.107ZM202.303 173.035C245.801 159.626 291.33 151.491 337.109 149.234C359.868 148.022 383.385 148.018 405.37 154.32C383.011 149.531 360.02 150.444 337.334 152.196C280.492 156.426 224.395 167.898 170.799 185.916C160.001 189.358 149.457 193.446 138.82 197.375C159.32 187.928 180.512 179.72 202.303 173.035ZM135.708 219.27C164.341 224.727 190.583 237.488 216.333 249.821C242.004 262.439 267.24 276.606 288.625 295.015C265.249 278.983 240.11 265.701 214.43 253.217C188.746 240.79 163.373 227.633 135.708 219.27Z" fill="#2e2c43" fill-rule="nonzero" opacity="1" stroke="none" vectornator:layerName="path"/>
<path d="M100.613 221.95C92.7827 249.23 102.308 251.88 123.54 266.772C146.865 284.067 159.32 311.972 159.215 339.436C159.058 348.803 157.486 358.042 154.442 367.037C158.105 328.781 132.89 289.023 94.347 274.551C86.348 271.555 77.8817 269.512 70.5253 265.34C63.1689 261.185 61.4862 248.931 61.5052 240.94L70.4323 249.444C72.3898 251.302 75.6685 249.526 74.9434 247.018C69.1745 227.126 72.7069 205.101 81.6614 186.022C92.2585 163.459 109.734 144.352 127.846 126.392C176.483 78.1707 231.587 35.6132 291.478 0C280.763 8.58458 271.508 18.7152 264.15 29.934C255.595 43.0132 249.428 60.1765 266.951 72.4542C271.515 75.6484 276.865 77.711 282.456 78.8072C292.066 80.693 301.752 81.5869 311.457 81.7912L311.778 82.6889C289.229 90.0634 267.067 98.589 245.448 108.136C213.056 122.873 180.263 137.781 152.581 159.705C131.182 177.047 114.106 201.134 111.582 227.965C108.977 223.315 105.585 217.245 103.333 213.283L100.613 221.95Z" fill="#2e2c43" fill-rule="nonzero" opacity="1" stroke="none" vectornator:layerName="path"/>
<path d="M450.299 228.202C448.409 231.349 446.86 234.687 445.676 238.119C436.248 222.765 420.979 212.974 402.808 208.908C417.669 220.117 430.961 235.333 429.192 253.899C426.957 251.451 424.292 249.348 421.353 247.69C418.979 241.498 416.06 235.471 411.64 230.098C409.805 227.9 407.755 225.845 405.554 223.898C393.452 213.188 377.232 205.977 360.208 201.294C377.638 199.133 395.678 200.777 411.946 206.016C426.714 210.76 439.998 218.441 450.299 228.202Z" fill="#2e2c43" fill-rule="nonzero" opacity="1" stroke="none" vectornator:layerName="path"/>
</g>
</g>
</svg>
