<?xml version="1.0" encoding="utf-8"?>
<!-- Generator: Adobe Illustrator 27.5.0, SVG Export Plug-In . SVG Version: 6.00 Build 0)  -->
<svg version="1.1" xmlns="http://www.w3.org/2000/svg" xmlns:xlink="http://www.w3.org/1999/xlink" x="0px" y="0px"
	 viewBox="0 0 500 500" style="enable-background:new 0 0 500 500;" xml:space="preserve">
<g id="BACKGROUND">
	<rect style="fill:#FFFFFF; fill-opacity:0;" width="350" height="350"/>
</g>
<g id="OBJECTS">
	<g>
		<path style="fill:#2E2C43;" d="M262.29,214.854c-1.097-5.847-4.408-11.445-9.596-14.353c-3.986-2.226-8.679-2.706-13.206-3.361
			c-4.517-0.655-9.233-1.637-12.716-4.599c-1.582-1.334-2.831-3.03-4.374-4.415c-1.306-1.181-2.929-2.143-4.649-2.269
			c0.938,2.065,1.011,4.463,0.708,6.731c-0.327,2.459-1.068,4.849-1.527,7.302c-1.083,5.844-0.352,12.253,3.148,17.063
			c3.491,4.82,10.091,7.56,15.683,5.536c-2.735-0.873-4.974-3.154-5.789-5.905c2.188,2.625,5.817,3.524,9.218,3.736
			c3.41,0.202,6.877-0.13,10.192,0.658c5.518,1.312,10.119,5.932,11.409,11.463C262.48,226.741,263.387,220.691,262.29,214.854z
			 M247.062,210.592c-3.233-1.101-6.723-1.281-10.145-1.151c-2.73,0.102-5.514,0.385-8.154-0.319
			c-2.65-0.694-5.172-2.667-5.574-5.368c-0.193,2.597,0.237,5.237,1.244,7.631c-2.75-2.208-4.337-5.672-4.65-9.189
			c-0.311-3.457,0.551-6.955,2.036-10.087c0.878,2.829,3.276,5.057,5.962,6.363c2.92,1.42,6.177,1.928,9.375,2.437
			c3.197,0.509,6.456,1.066,9.337,2.548c4.908,2.543,8.251,7.87,8.396,13.4C253.293,213.824,250.305,211.692,247.062,210.592z"/>
		<path style="fill:#2E2C43;" d="M158.66,230.096c-0.011-0.04-0.032-0.08-0.043-0.12l0-0.01c-1.945-5.222-4.465-10.199-6.996-15.165
			l-0.456,0.233c-1.614,1.257-3.395,2.319-5.271,3.131c-0.338,0.139-0.468,0.535-0.279,0.841c1.5,2.452,2.991,4.894,4.432,7.387
			c3.637,5.801,6.9,11.873,1.901,18.13c-1.99,2.633-4.704,4.482-7.37,6.24c0,0,3.277-1.03,4.892-1.504
			c2.472-0.728,5.145-1.049,7.246-2.54c2.456-1.732,3.68-4.837,3.782-7.843C160.588,235.871,159.707,232.911,158.66,230.096z"/>
		<path style="fill:#2E2C43;" d="M199.126,196.257c-0.729-1.769-2.856-2.416-4.324-3.653c-1.324-1.1-2.181-2.765-3.719-3.559
			c-1.191-0.612-2.607-0.585-3.952-0.549c-4.797,0.146-9.585,0.291-14.382,0.436c-0.211,0.006-0.938,0.225-0.938,0.225
			c0.271,3.056-0.923,6.161-2.902,8.483c-1.025,1.122-3.064,2.652-1.568,4.169l1.097,0.453c6.008-0.709,11.864-2.61,17.161-5.541
			c0.406-0.221,0.906,0.067,0.868,0.54c-0.059,0.825,0.114,1.684,0.515,2.417c0.591,1.09,1.657,1.905,2.87,2.195
			c0.536,0.127,1.119,0.161,1.608,0.42c0.489,0.258,0.866,0.861,0.639,1.369c-0.143,0.305-0.459,0.484-0.767,0.623
			c-0.873,0.405-1.8,0.68-2.741,0.825c-0.51,0.074-0.685,0.701-0.294,1.032c0.894,0.76,2.07,1.201,3.245,1.191
			c1.114-0.019,2.189-0.399,3.18-0.907c0.981-0.498,1.919-1.135,2.599-1.996c1.031-1.293,1.409-2.97,1.758-4.586
			C199.339,198.652,199.587,197.38,199.126,196.257z"/>
		<path style="fill:#2E2C43;" d="M225.918,171.613c-2.822-1.523-5.03-4.147-6.034-7.205c-0.807-2.45-0.931-5.269-2.649-7.203
			c-1.977-2.228-5.389-2.49-7.919-4.001l-0.01,0c-1.904-3.305-2.207-7.576-4.958-10.226c-1.236-1.193-2.842-1.914-4.408-2.617
			c-2.388-1.052-4.766-2.115-7.144-3.178c-0.59-0.266-1.103,0.461-0.679,0.942c1.966,2.219,4.935,3.597,7.11,5.72
			c1.856,1.83,3.125,4.257,3.574,6.837c0.049,0.33-0.204,0.638-0.545,0.667c-0.962,0.105-1.91,0.321-2.825,0.656
			c-0.308,0.118-0.654-0.033-0.763-0.352c-0.738-2.11-1.516-4.179-3.103-5.714c-1.237-1.193-2.842-1.914-4.407-2.607
			c-2.378-1.063-4.766-2.125-7.145-3.188c-0.589-0.256-1.103,0.471-0.678,0.952c1.966,2.209,4.935,3.597,7.1,5.72
			c1.03,0.997,1.865,2.181,2.481,3.471c0.18,0.367-0.09,0.786-0.501,0.817c-0.391,0.02-0.782,0.051-1.173,0.091
			c-0.554-0.076-1.123-0.302-1.715-0.658c-0.418-0.25-1.408-0.455-1.773-0.205c-0.524,0.335-1.024,0.8-1.501,1.365
			c-0.781,0.091-1.562,0.191-2.342,0.312c-0.637-0.536-1.285-1.141-1.966-1.817c-0.485-0.49-1.489-0.483-1.785,0.107
			c-0.421,0.804-0.82,1.659-1.198,2.572c-0.77,0.151-1.539,0.311-2.308,0.482l-2.229-2.272c-0.547-0.558-1.526-0.372-1.748,0.357
			c-0.315,1.023-0.619,2.065-0.893,3.117c-0.768,0.201-1.526,0.412-2.283,0.642c-0.783-0.743-1.585-1.475-2.397-2.187
			c-0.576-0.507-1.501-0.152-1.672,0.606l-0.712,3.112c-0.747,0.251-1.483,0.511-2.219,0.791c-0.799-0.592-1.596-1.113-2.371-1.575
			c-0.562-0.347-1.422,0.168-1.565,0.835c-0.227,0.93-0.475,1.8-0.736,2.59c-0.715,0.3-1.43,0.61-2.145,0.94
			c-0.709-0.233-1.386-0.376-2.009-0.389c-0.443-0.019-1.188,0.674-1.408,1.101c-0.326,0.601-0.684,1.093-1.117,1.445
			c-0.347,0.18-0.694,0.35-1.041,0.53c-0.01,0.01-0.02,0.01-0.02,0.01c-0.01,0.01-0.03,0.011-0.04,0.021l-0.95,0.557
			c-0.132-0.037-0.274-0.093-0.426-0.16c-0.67-0.274-1.498-0.835-2.305-1.346c-0.358-0.232-0.771-0.281-1.048-0.113
			c-0.287,0.158-0.438,0.544-0.397,0.965c0.055,0.953,0.141,1.945,0.07,2.67c-0.016,0.171-0.042,0.323-0.069,0.454l-0.989,0.588
			c-0.069,0.042-0.15,0.034-0.211-0.025c-0.85-0.992-2.733-3.092-3.54-4.025c-4.848-6-9.062-12.73-12.07-19.833
			c-7.221-16.485-9.209-35.245-5.38-52.842l0.872-3.508c1.69-6.814,4.892-13.427,2.783-20.322c-0.099-0.329-0.208-0.647-0.347-0.965
			c-0.103,2.584-1.22,5.185-3.041,7c-1.968,1.93-4.632,3.024-7.305,3.365c-5.315,0.722-10.219-1.3-14.725-3.863
			c-1.57-0.893-3.102-1.847-4.572-2.773c-11.466-7.113-23.638-13.202-36.625-17.031c-0.557-0.166-1.113-0.302-1.679-0.448
			c-13.083-3.284-26.933-4.026-40.073-1.021c-0.459,0.103-0.625,0.689-0.275,1.001c5.62,5.207,6.733,14.709,2.378,21.041
			c-0.126,0.184-0.251,0.368-0.388,0.542c8.999,5.721,15.679,14.988,18.241,25.346c2.505,10.13,1.057,21.196-3.967,30.347
			c-0.173,0.306-0.032,0.694,0.303,0.816c18.305,7.064,32.029,24.855,34.206,44.364c0.04,0.381,0.438,0.621,0.796,0.471
			c18.751-7.763,40.915-6.726,58.889,2.678c0.367,0.191,0.42,0.692,0.106,0.971c0,0,0,0-0.01,0.01c-0.01,0.01-0.01,0.01-0.01,0.01
			c-0.01,0.01-0.02,0.02-0.029,0.031c-0.039,0.041-0.088,0.092-0.157,0.155c-0.127,0.134-0.303,0.319-0.508,0.546
			c-1.261,1.319-2.491,2.687-3.69,4.054c-0.516,0.616-0.951,0.889-0.75,0.502c0.182-0.346,0.374-0.673,0.586-1
			c-0.587,0.588-1.174,1.186-1.741,1.793c-0.505,0.274-1.03,0.549-1.576,0.805c-0.397,0.191-1.112,0.883-1.263,1.268
			c-0.236,0.559-0.422,1.136-0.587,1.733c-0.526,0.606-1.043,1.223-1.549,1.849c-0.586,0.246-1.193,0.483-1.809,0.72
			c-0.437,0.172-1.111,0.903-1.159,1.366c-0.084,0.645-0.147,1.3-0.18,1.963c-0.475,0.655-0.94,1.32-1.405,1.986
			c-0.647,0.228-1.303,0.466-2.001,0.685c-0.498,0.154-1.079,0.972-1.036,1.463c0.039,0.712,0.128,1.433,0.227,2.154
			c-0.424,0.684-0.838,1.368-1.231,2.071c-0.717,0.23-1.454,0.47-2.191,0.71c-0.528,0.174-1.068,1.022-0.903,1.561
			c0.2,0.728,0.42,1.465,0.66,2.202c-0.382,0.743-0.755,1.486-1.106,2.239l-2.31,0.763c-0.608,0.177-0.995,1.111-0.76,1.647
			c0.33,0.735,0.671,1.479,1.042,2.203c-0.311,0.782-0.622,1.563-0.913,2.344l-0.408,0.141c-0.666,0.249-1.383,0.478-2.04,0.736
			c-0.586,0.236-0.933,1.18-0.598,1.713c0.451,0.731,0.912,1.473,1.393,2.193c-0.24,0.79-0.481,1.579-0.711,2.369l-0.457,0.183
			c-0.696,0.279-1.371,0.578-2.066,0.868c-0.616,0.267-0.882,1.238-0.466,1.76c0.561,0.708,1.132,1.417,1.723,2.114
			c-0.18,0.798-0.35,1.606-0.509,2.414c-0.854,0.394-1.696,0.807-2.59,1.223c-0.625,0.308-0.83,1.297-0.335,1.787
			c0.671,0.686,1.351,1.361,2.041,2.006c-0.129,0.817-0.238,1.643-0.338,2.46c-0.852,0.444-1.724,0.909-2.605,1.384
			c-0.634,0.348-0.758,1.355-0.204,1.813c0.78,0.642,1.53,1.266,2.319,1.878c-0.059,0.815-0.108,1.63-0.147,2.455
			c-0.86,0.515-1.72,1.039-2.59,1.574c-0.642,0.399-0.696,1.414-0.083,1.83c0.695,0.474,1.381,0.938,2.095,1.391l0.48,0.299
			c0.011,0.813,0.023,1.636,0.054,2.459c-0.859,0.575-1.717,1.17-2.575,1.775c-0.621,0.448-0.605,1.462,0.058,1.827
			c0.897,0.509,1.844,1.007,2.801,1.474c0.062,0.822,0.143,1.643,0.235,2.465c-0.827,0.634-1.663,1.299-2.499,1.974
			c-0.6,0.498-0.533,1.51,0.198,1.813c0.996,0.436,1.981,0.852,2.975,1.238c0.132,0.82,0.274,1.64,0.426,2.46
			c-0.805,0.704-1.6,1.428-2.394,2.172c-0.609,0.538-0.362,1.536,0.388,1.778c1.023,0.345,2.047,0.68,3.069,0.994
			c0.202,0.808,0.404,1.607,0.616,2.405l-0.391,0.402c-0.616,0.649-1.261,1.309-1.857,1.977c-0.517,0.576-0.201,1.552,0.568,1.733
			c1.062,0.263,2.103,0.517,3.153,0.751c0.252,0.787,0.523,1.563,0.804,2.329l-0.38,0.452c-0.584,0.708-1.099,1.395-1.642,2.102
			c-0.476,0.625-0.089,1.579,0.697,1.699c1.069,0.173,2.128,0.336,3.187,0.489c0.321,0.755,0.642,1.5,0.993,2.244
			c-0.116,0.164-0.223,0.317-0.329,0.48l-1.438,2.227c-0.414,0.664,0.051,1.576,0.826,1.636c1.077,0.092,2.144,0.175,3.2,0.228
			c0.381,0.733,0.781,1.456,1.192,2.168c-0.508,0.927-1.006,1.865-1.493,2.811c-0.343,0.692,0.192,1.572,0.965,1.562
			c1.085,0.002,2.13,0.015,3.184-0.013c0.45,0.681,0.899,1.363,1.379,2.033c-0.417,0.955-0.813,1.93-1.189,2.904
			c-0.283,0.711,0.331,1.538,1.083,1.478l2.556-0.208l0.591-0.065c0.489,0.64,0.997,1.259,1.516,1.879
			c-0.316,0.993-0.611,1.985-0.896,2.986c-0.202,0.718,0.471,1.484,1.21,1.355c1.041-0.158,2.051-0.315,3.061-0.482
			c0.538,0.589,1.085,1.177,1.653,1.765c-0.225,0.99-0.45,1.99-0.645,2.98c-0.142,0.707,0.579,1.401,1.279,1.262l2.958-0.57l0.01,0
			c0.557,0.568,1.145,1.135,1.722,1.703c-0.156,0.968-0.311,1.936-0.447,2.895c-0.093,0.685,0.638,1.339,1.317,1.201l2.848-0.547
			l1.761,1.641c-0.116,0.937-0.212,1.874-0.309,2.79c-0.063,0.664,0.677,1.308,1.327,1.191c0.92-0.165,1.84-0.319,2.74-0.453
			c0.587,0.547,1.174,1.104,1.751,1.652c-0.077,0.896-0.145,1.772-0.212,2.647c-0.044,0.634,0.686,1.268,1.307,1.191
			c0.881-0.113,1.743-0.196,2.605-0.269c0.587,0.567,1.154,1.135,1.722,1.703c-0.058,0.845-0.107,1.67-0.146,2.485
			c-0.035,0.584,0.655,1.248,1.248,1.233c0.833-0.032,1.656-0.043,2.46-0.024c0.548,0.588,1.096,1.177,1.623,1.776
			c-0.05,0.795-0.089,1.569-0.11,2.323c-0.026,0.553,0.625,1.249,1.169,1.305c0.775,0.07,1.531,0.181,2.278,0.302
			c0.499,0.63,0.987,1.26,1.476,1.89c-0.041,0.734-0.072,1.458-0.084,2.152c-0.007,0.502,0.575,1.25,1.071,1.388
			c0.698,0.193,1.367,0.416,2.016,0.67c0.439,0.661,0.868,1.333,1.278,2.006c-0.012,0.673-0.025,1.337-0.019,1.979
			c0.002,0.462,0.515,1.262,0.923,1.482c0.591,0.316,1.132,0.663,1.654,1.042c0.37,0.693,0.72,1.407,1.05,2.122
			c-0.003,0.633,0.012,1.235,0.058,1.827c0.011,0.432,0.446,1.294,0.745,1.588c0.443,0.44,0.817,0.913,1.172,1.406
			c0.26,0.736,0.5,1.473,0.721,2.221c0.003,0.12,0.006,0.231,0.019,0.351c0.032,0.461,0.104,0.911,0.157,1.372
			c0.041,0.401,0.356,1.327,0.506,1.694c0.246,0.576,0.402,1.175,0.529,1.784c0.012,0.06,0.023,0.13,0.035,0.19
			c0.046,0.22,0.082,0.45,0.118,0.68c0.001,0.05,0.012,0.09,0.013,0.11c0,0.01,0,0.01,0.011,0.02l0,0.01c0,0.01,0,0.01,0,0.01
			c0.099,0.701,1.112,0.654,1.174-0.051c0.92-11.655-2.896-23.518-8.61-33.845c-6.569-11.891-15.568-22.222-23.677-33.109
			c-8.109-10.897-15.531-22.766-18.2-36.085c-2.553-12.74-0.056-27.098,8.88-36.422c0.235-0.247,0.627-0.227,0.864,0.018
			c0.981,1.039,2.169,1.892,3.431,2.542c2.005,1.022,4.19,1.608,6.393,2.093c0.515,0.117,0.634,0.807,0.179,1.08
			c-2.334,1.387-4.09,3.753-4.694,6.4c-0.198,0.869-0.285,1.765-0.625,2.598c-0.33,0.822-0.993,1.593-1.873,1.746
			c-0.53,0.094-1.119-0.141-1.471-0.544c-0.28-0.314-0.772-0.311-0.973,0.046c-0.757,1.386-0.974,3.079-0.832,4.672
			c0.162,1.984,0.815,3.896,1.347,5.81c0.911,3.331,1.482,6.751,1.693,10.201c0.02,0.371-0.008,0.834-0.335,1.003
			c-0.317,0.159-0.684-0.052-0.971-0.266c-0.594-0.437-1.179-0.903-1.734-1.401c-0.391-0.352-1.005-0.034-0.981,0.497
			c0.12,1.905,1.103,3.778,2.679,4.882c1.739,1.22,4.096,1.469,6.064,0.675c0.73,0.272,1.535,0.311,2.283,0.121
			c0.788-0.192,1.5-0.632,2.026-1.249c0.962,0.306,2.174-0.217,2.723-1.126c0.655-1.082,0.548-2.485,0.124-3.689
			c-0.423-1.204-1.135-2.281-1.657-3.442c-1.525-3.395-1.342-7.508,0.472-10.749c0.259-0.459,0.539-0.898,0.849-1.318
			c0.029-0.041,0.068-0.082,0.107-0.113c1.366-1.161,4.137-3.513,4.137-3.513c4.724-3.709,10.407-8.78,8.758-15.396
			c-0.762-3.003-2.53-5.719-4.08-8.521c-1.536-2.672-3.014-5.395-4.481-8.109c-0.179-0.317-0.019-0.713,0.33-0.832
			c2.121-0.718,4.155-1.676,6.062-2.871l0.456-0.233c-0.011-0.03-0.031-0.049-0.042-0.079c1.872-1.023,3.669-2.205,5.342-3.525
			c0.207-0.166,0.498-0.174,0.713-0.009c3.672,2.887,7.829,5.149,12.228,6.691c0.425,0.14,0.56,0.689,0.216,0.979
			c-1.777,1.564-2.447,4.373-1.376,6.515c0.254,0.506,0.6,1.069,0.404,1.606c-0.244,0.669-1.205,0.775-1.856,0.471
			c-0.651-0.305-1.158-0.864-1.799-1.189c-0.641-0.325-1.585-0.3-1.909,0.352c-0.219,0.457-0.036,0.925,0.306,1.328
			c0.228,0.285,0.526,0.539,0.813,0.732c1.044,0.736,2.098,1.472,3.161,2.197c0.982,0.667,2.004,1.344,3.164,1.544
			c1.877,0.323,3.71-0.619,5.374-1.527c1.268-0.686,2.633-1.485,3.14-2.834c0.281-0.761,0.24-1.593,0.208-2.406
			c-0.106-2.137-0.202-4.284-0.299-6.421c-0.058-1.053-0.106-2.136-0.563-3.089c-0.553-1.161-1.618-1.967-2.614-2.794
			c-3.223-2.658-6.009-5.849-8.211-9.398c0,0-1.615-2.238-1.622-2.88c0.1-1.931,1.998-3.086,2.781-4.653
			c1.264-1.982,2.081-4.152,2.653-6.458c0,0,1.028-9.84,3.107-13.701c1.695-3.168,4.748-5.468,8.078-6.811
			c2.713-1.096,5.593-1.613,8.509-1.86c0.27-0.027,0.476-0.223,0.53-0.486c0.352-1.898,1.148-3.716,2.217-5.1
			c-0.767,2.149-1.398,4.536-1.458,6.848l0.003,0.1c0.137,1.393,0.504,2.739,1.238,3.925c1.825,2.945,5.412,4.147,8.439,5.836
			c3.465,1.928,6.452,4.733,8.588,8.072c0.157,0.257,0.471,0.349,0.749,0.221c0.912-0.446,1.825-0.891,2.737-1.337
			c0.397-0.191,0.433-0.724,0.084-1.007c-2.041-1.614-2.797-4.788-1.501-7.092c-0.479,0.876-1.469,1.424-2.473,1.461
			c-0.994,0.036-1.979-0.4-2.71-1.084c-1.401-1.319-1.807-3.428-1.546-5.343c0.008-0.071,0.016-0.141,0.034-0.222
			c0.328-2.048,2.849-2.837,4.372-1.42c0.01,0.01,0.021,0.02,0.031,0.029c1.143,1.075,2.404,2.056,3.252,3.37
			c0.66,1.017,1.025,2.303,0.794,3.464c-0.061,0.343-0.183,0.678-0.366,0.984c1.703-0.165,3.475,0.391,4.771,1.522
			c1.038,0.897,1.763,2.133,2.06,3.472c0.092,0.449,0.619,0.637,0.963,0.346c1.424-1.233,2.754-2.613,3.26-4.394
			c0.341-1.184,0.278-2.428,0.376-3.656c0.075-0.996,0.278-2.036,0.829-2.854C226.334,172.165,226.234,171.776,225.918,171.613z
			 M74.457,166.085c3.465-25.724,14.979-50.563,32.403-69.832C91.671,117.252,80.688,140.892,74.457,166.085z M106.694,90.663
			c-0.21,0.046-0.42,0.091-0.629,0.137c-21.954,4.703-42.583,15.136-59.596,29.774c12.241-12.012,27.176-21.252,43.294-27.117
			c4.536-1.666,9.191-3.033,13.893-4.15c-22.075-11.425-47.454-13.995-71.987-14.97c26.538-0.715,54.333,2.053,77.633,15.787
			L106.694,90.663z"/>
		<path style="fill:#2E2C43;" d="M127.563,178.614c-0.029,0.031-0.049,0.051-0.079,0.062c-1.276,1.148-2.53,2.336-3.744,3.563
			c-0.212,0.327-0.405,0.653-0.587,1c-0.201,0.387,0.234,0.114,0.75-0.502c1.2-1.367,2.429-2.735,3.691-4.054
			c0.205-0.226,0.381-0.412,0.508-0.546c0.069-0.062,0.118-0.114,0.157-0.155C128.023,178.18,127.798,178.387,127.563,178.614z"/>
		<path style="fill:#2E2C43;" d="M160.808,72.459c-1.365,4.244-3.95,7.958-6.21,11.804c-13.645,23.228-14.961,53.144-3.865,77.622
			c-2.111,1.09-4.19,2.259-6.217,3.487c-19.525-21.466-27.028-53.3-18.969-81.193c1.262-4.352,2.867-8.653,3.151-13.17
			c0.284-4.517-1.03-9.425-4.608-12.194c3.044,3.456,1.802,9.354-1.799,12.221c-3.611,2.877-8.736,3.151-13.178,1.912
			c-4.432-1.24-8.375-3.779-12.315-6.166C85.41,59.918,73.275,54.129,60.439,50.688c-0.979-1.34-2.037-2.618-3.174-3.824
			c6.416-5.09,7.7-15.499,2.719-21.998c13.663,0.125,27.12,4.252,39.133,10.758c9.771,5.289,18.637,12.098,26.76,19.669
			c1.874,1.759,3.719,3.549,5.514,5.37c3.178,3.231,6.321,6.625,10.257,8.882c3.936,2.257,8.894,3.253,13.034,1.387
			c4.14-1.866,6.762-7.188,4.688-11.221C162.123,63.214,162.174,68.225,160.808,72.459z"/>
		<g>
			<g>
				<path style="fill:#2E2C43;" d="M128.103,178.138c-0.127,0.134-0.303,0.319-0.508,0.546c-1.261,1.319-2.491,2.687-3.691,4.054
					c-0.516,0.616-0.951,0.889-0.75,0.502c0.182-0.346,0.374-0.673,0.587-1c0.289-0.469,0.609-0.92,0.949-1.341
					c0.243-0.318,1.03-0.921,1.366-1.15c0.493-0.334,0.976-0.689,1.428-1.072c0.03-0.011,0.049-0.032,0.079-0.062
					C127.749,178.459,127.926,178.303,128.103,178.138z"/>
			</g>
		</g>
	</g>
	<g>
		<path style="fill:#2E2C43;" d="M305.853,241.768c-1.182,0.202-2.354,0.404-3.535,0.605c-2.806,0.468-5.692,0.98-8.111,2.464
			c-1.311,0.809-2.43,1.863-3.409,3.042c-0.067-0.023-0.144-0.037-0.212-0.06c-2.059-0.566-4.205-1.138-6.308-1.043
			c0.706-0.626,1.413-1.263,2.119-1.889c1.156-1.023,2.323-2.054,3.723-2.703c0.78-0.359,1.612-0.589,2.451-0.77
			C296.935,240.442,301.544,240.566,305.853,241.768z"/>
		<path style="fill:#2E2C43;" d="M347.82,309.58c-0.462,0.064-0.922,0.098-1.388,0.054c-0.884-0.085-1.781-0.454-2.299-1.184
			c-0.263-0.375-0.425-0.832-0.739-1.161c-0.251-0.247-0.584-0.411-0.919-0.536c-2.112-0.842-4.617-0.896-6.324-2.4
			c-1.922-1.691-2.102-4.579-2.143-7.148c-0.045-3.057-0.099-6.114-0.144-9.171c-0.004-0.302-0.016-0.635-0.198-0.879
			c-0.209-0.294-0.604-0.393-0.96-0.48c-4.164-0.989-8.246-3.155-10.557-6.74c1.371-0.28,2.708-0.658,4.014-1.175
			c0.601,1.007,1.573,1.82,2.65,2.325c1.609,0.758,3.414,0.95,5.195,1.043c1.78,0.103,3.793,0.238,4.921,1.624
			c0.715,0.887,0.876,2.085,1.012,3.215c0.523,4.555,0.927,9.124,1.224,13.696c0.035,0.636,0.079,1.283,0.291,1.889
			c0.468,1.313,1.661,2.195,2.716,3.109C345.535,306.816,346.764,308.139,347.82,309.58z"/>
		<path style="fill:#2E2C43;" d="M420.166,272.919c-0.039,0.193-0.156,0.362-0.271,0.522c-0.67,0.863-1.583,1.527-2.608,1.903
			c0.1,0.698,0.014,1.416-0.349,2.012c-0.407,0.691-1.242,1.165-2.026,1.055c-0.482,1.185-1.197,2.357-2.409,2.577
			c-1.133,0.204-2.208-0.516-3.035-1.31c-1.821-1.745-3.203-4.051-5.478-5.146c-1.762-0.834-3.831-0.816-5.721-0.319
			c-0.475,0.121-0.932,0.273-1.389,0.444c-1.374,0.513-2.678,1.206-3.963,1.89c-1.887,0.994-3.764,1.999-5.651,3.002
			c-2.57,1.368-5.385,2.772-8.248,2.281c-2.398-0.419-4.351-2.082-6.179-3.69c-1.986-1.763-3.983-3.517-5.969-5.27
			c2.745-2.481,5.075-5.423,7.083-8.548c1.509-2.351,2.909-4.863,4.662-7.026c1.842,1.17,3.426,2.775,4.882,4.413
			c0.783,0.88,1.556,1.789,2.349,2.67c1.152,1.29,2.366,2.524,3.756,3.563c1.775,1.323,3.93,2.284,6.11,2.399
			c0.691,0.036,1.386-0.015,2.067-0.165c1.362-0.299,2.608-0.976,3.833-1.643c1.848-1.006,3.687-2.012,5.525-3.009
			c2.83,1.495,5.736,2.838,8.708,4.028c0.227-1.53-0.186-3.152-1.137-4.383c1.108,0.078,2.116,0.775,2.802,1.659
			c0.696,0.876,1.118,1.932,1.542,2.969c0.319,0.797,0.638,1.605,0.967,2.402C420.114,272.428,420.208,272.677,420.166,272.919z"/>
		<path style="fill:#2E2C43;" d="M466.613,182.478c-0.234-3.545-0.951-7.183-2.983-10.11c-2.186-3.159-5.643-5.155-8.979-7.057
			c3.634,4.016,7.032,8.643,7.677,14.025c0.26,2.112,0.062,4.219-0.484,6.249c-0.997,3.753-3.2,7.249-5.998,9.991
			c-4.301,4.244-9.868,6.938-15.488,9.152c-5.579,2.186-11.333,3.973-17.247,4.922c-7.577,1.213-15.335,1.031-22.902,2.216
			c-0.836,0.122-1.673,0.273-2.501,0.435c-14.143,2.85-26.902,11.891-34.426,24.193c1.68-7.289,4.661-14.276,9.644-19.792
			c6.62-7.333,17.339-11.514,26.72-8.427c-2.574-2.652-2.228-7.211-0.117-10.252c2.111-3.041,5.563-4.861,8.984-6.272
			c12.847-5.318,27.388-6.46,40.909-3.204c-4.071-4.614-9.845-7.288-14.88-10.821c-5.036-3.533-9.71-8.735-9.583-14.886
			c0.125-6.297,5.18-11.321,10.281-15.016c5.416-3.922,11.307-7.204,17.5-9.749c6.183-2.545,12.67-4.362,19.291-5.381
			c-12.45-2.077-25.083-4.202-36.512-9.563c-6.019-2.823-12.235-7.491-12.658-14.12c-0.362-5.571,3.554-10.479,7.73-14.193
			c4.995-4.442,10.69-8.105,16.804-10.81c-14.133,3.963-28.062,8.698-41.688,14.171c-17.593,7.061-34.685,15.358-51.115,24.801
			c-10.866,6.242-21.61,13.144-29.759,22.661c-2.526,2.951-4.775,6.2-6.633,9.645c-3.21,5.95-5.241,12.489-5.462,19.133
			c-0.04,1.315-1.789,1.731-2.4,0.557l-2.773-5.376c-1.189,3.89-2.246,10.09,0.454,13.129c2.71,3.04,6.246,5.206,9.41,7.763
			c15.035,12.156,20.62,34.454,13.823,52.423c-0.006,0.117-0.022,0.233-0.038,0.35c-0.142,0.285-0.284,0.571-0.435,0.846l0,0.01
			c-1.136,2.117-2.45,4.116-3.953,5.97c-2.494,3.08-5.544,5.808-9.24,7.235c-3.535,1.357-7.452,1.434-11.186,0.8
			c-2.312-0.394-4.656-1.093-6.557-2.422c-0.669-1.02-1.337-2.051-2.006-3.072c-0.027-0.04-0.045-0.07-0.072-0.111
			c1.1-1.445,2.358-2.735,3.911-3.689c2.429-1.483,5.306-1.996,8.111-2.464c1.182-0.202,2.363-0.403,3.535-0.605
			c-4.309-1.201-8.908-1.326-13.272-0.354c-0.849,0.18-1.68,0.41-2.46,0.769c-1.4,0.649-2.567,1.681-3.713,2.704
			c-0.051,0.046-0.102,0.092-0.154,0.138c-0.898-0.554-1.917-0.852-2.926-1.139c-0.067-0.023-0.144-0.037-0.212-0.06
			c-2.059-0.566-4.205-1.138-6.308-1.043c-0.694,0.032-1.383,0.132-2.067,0.331c-1.07,0.315-2.056,0.868-3.084,1.302
			c-2.985,1.278-6.352,1.668-9.551,1.081c-1.904-0.344-3.821-1.02-5.722-0.68c-2.324,0.405-4.139,2.262-5.367,4.276
			c-0.096,0.161-0.192,0.312-0.231,0.495c-0.096,0.346,0.012,0.713,0.111,1.06c0.491,1.616,0.972,3.232,1.454,4.848
			c0.685-0.033,1.357-0.202,1.987-0.481c0.699,1.744,1.099,3.6,1.187,5.468c4.025-0.082,7.646,2.313,10.815,4.792
			c3.178,2.479,6.382,5.223,10.32,6.044c2.655,0.549,5.479,0.101,7.877-1.149c2.324,1.469,4.924,2.493,7.591,3.189
			c3.408,0.881,6.931,1.251,10.44,1.513c4.383,0.337,8.922,0.497,13.202-0.362c1.371-0.28,2.708-0.658,4.014-1.175
			c0.601,1.007,1.573,1.819,2.649,2.325c1.609,0.758,3.415,0.95,5.195,1.043c1.78,0.103,3.793,0.238,4.921,1.624
			c0.715,0.887,0.876,2.085,1.012,3.215c0.522,4.555,0.927,9.124,1.224,13.696c0.035,0.636,0.079,1.283,0.291,1.889
			c0.468,1.313,1.661,2.195,2.716,3.109c1.364,1.155,2.593,2.478,3.649,3.919l0.164,0.214c0.418,0.588,0.844,1.215,1.502,1.513
			c0.429,0.198,0.915,0.233,1.382,0.248c1.881,0.05,3.799-0.25,5.447-1.159c2.422-1.337,4.035-4.014,4.093-6.782
			c0.057-2.768-1.448-5.511-3.803-6.952c0.697,1.403,1.085,2.955,1.11,4.518c0.005,0.283-0.011,0.585-0.18,0.82
			c-0.358,0.498-1.196,0.299-1.581-0.18c-0.385-0.479-0.478-1.118-0.711-1.696c-0.482-1.226-1.623-2.173-2.928-2.417
			c-1.295-0.244-2.705,0.219-3.604,1.187c1.694-5.708,2.386-11.653,3.077-17.57c0.088-0.757,0.177-1.513,0.237-2.281
			c4.002-0.571,7.821-2.313,11.079-4.718c0.853-0.629,1.658-1.289,2.437-2c2.745-2.481,5.075-5.423,7.083-8.548
			c1.509-2.351,2.909-4.863,4.662-7.026c1.842,1.17,3.426,2.775,4.882,4.413c0.783,0.88,1.555,1.789,2.349,2.67
			c1.152,1.29,2.366,2.525,3.756,3.563c1.775,1.323,3.93,2.284,6.11,2.399c0.691,0.036,1.386-0.015,2.068-0.165
			c1.362-0.299,2.608-0.976,3.833-1.643c1.848-1.006,3.687-2.012,5.525-3.009c0.583-0.321,1.165-0.632,1.748-0.952
			c1.909-1.042,3.848-2.102,5.962-2.606c2.124-0.503,4.471-0.4,6.313,0.76c1.606,1.011,2.65,2.695,3.964,4.062
			c1.304,1.376,3.215,2.53,5.03,1.971c1.339-0.408,2.221-1.601,2.958-2.821c0.773-0.223,1.463-0.733,1.899-1.413
			c0.362-0.586,0.545-1.279,0.513-1.964c1.051-0.501,1.832-1.621,1.992-2.813c0.221-1.608-0.524-3.218-1.603-4.426
			c-1.088-1.208-2.487-2.072-3.867-2.925c1.005,1.487,1.324,3.417,0.862,5.149c-3.852-0.797-7.109-3.251-10.349-5.48
			c-3.25-2.22-6.858-4.331-10.794-4.264c1.174,1.252,1.672,3.103,1.282,4.771c-2.972-0.829-6.171-0.85-9.151-0.05
			c-0.535,0.148-1.081,0.324-1.5,0.683c-0.715,0.616-0.966,1.667-1.754,2.182c1.104-3.562,1.151-7.444,0.129-11.03
			c-0.207-0.713-0.443-1.419-0.83-2.044c-0.933-1.561-2.58-2.536-4.183-3.41c2.646-3.94,6.693-6.861,10.935-9.059
			c9.941-5.168,21.238-6.967,31.855-10.519c10.627-3.552,21.338-9.626,25.904-19.858c1.791-4.005,2.51-8.416,2.477-12.819
			C466.684,183.935,466.663,183.202,466.613,182.478z M438.146,184.958c-34.428-15.446-71.778-23.55-109.48-23.808
			C366.346,158.655,404.92,167.057,438.146,184.958z M353.918,143.688c20.577-6.826,42.115-10.967,63.771-12.116
			c10.766-0.617,21.891-0.619,32.291,2.589c-10.577-2.438-21.453-1.973-32.185-1.081c-26.889,2.153-53.426,7.993-78.78,17.165
			c-5.108,1.752-10.096,3.833-15.128,5.833C333.585,151.269,343.61,147.091,353.918,143.688z M322.415,167.224
			c13.545,2.778,25.959,9.274,38.14,15.552c12.144,6.423,24.082,13.635,34.198,23.006c-11.058-8.161-22.95-14.922-35.098-21.277
			C347.505,178.179,335.502,171.481,322.415,167.224z"/>
		<path style="fill:#2E2C43;" d="M305.813,168.588c-3.704,13.887,0.802,15.236,10.846,22.817
			c11.034,8.804,16.926,23.009,16.876,36.99c-0.074,4.768-0.818,9.471-2.258,14.05c1.733-19.474-10.195-39.713-28.428-47.08
			c-3.784-1.525-7.789-2.565-11.269-4.689c-3.48-2.115-4.276-8.353-4.267-12.421l4.223,4.329c0.926,0.946,2.477,0.042,2.134-1.235
			c-2.729-10.126-1.058-21.338,3.178-31.05c5.013-11.486,13.28-21.212,21.848-30.355c23.008-24.547,49.075-46.211,77.407-64.34
			c-5.069,4.37-9.447,9.527-12.928,15.238c-4.047,6.658-6.964,15.395,1.325,21.645c2.159,1.626,4.69,2.676,7.335,3.234
			c4.546,0.96,9.128,1.415,13.719,1.519l0.152,0.457c-10.667,3.754-21.151,8.094-31.378,12.954
			c-15.323,7.502-30.836,15.091-43.931,26.251c-10.123,8.828-18.201,21.09-19.395,34.748c-1.232-2.367-2.837-5.457-3.902-7.474
			L305.813,168.588z"/>
		<path style="fill:#2E2C43;" d="M471.234,171.771c-0.894,1.602-1.627,3.301-2.187,5.048c-4.46-7.816-11.683-12.8-20.279-14.87
			c7.03,5.706,13.318,13.452,12.481,22.903c-1.057-1.246-2.318-2.317-3.708-3.161c-1.123-3.152-2.504-6.22-4.595-8.955
			c-0.868-1.119-1.838-2.165-2.879-3.156c-5.725-5.452-13.398-9.123-21.451-11.507c8.245-1.1,16.779-0.263,24.475,2.404
			C460.077,162.892,466.361,166.802,471.234,171.771z"/>
	</g>
	<g>
		<g>
			<g>
				<path style="fill:#2E2C43;" d="M349.292,346.686c-2.699,0.682-5.321,1.686-7.416,3.489c-0.75,0.643-1.432,1.393-1.822,2.31
					c-0.478,1.101-0.487,2.329-0.702,3.508c-0.205,1.14-0.585,2.232-0.975,3.323c-0.185,0.526-0.39,1.072-0.614,1.608
					c2.543,2.456,3.927,5.944,4.57,9.443c0.37,2.017,0.526,4.073,0.497,6.12c-0.02,3.031-0.439,6.061-1.082,9.034
					c-1.15,5.262-3.06,10.359-5.642,15.095c0.049,0.721,0.068,1.442,0.068,2.163c0,5.048-0.975,10.105-2.806,14.822
					c-1.54,3.995-3.713,7.757-6.422,11.08c0.711,0.37,1.423,0.75,2.134,1.121c1.471,0.77,2.953,1.549,4.424,2.319
					c0.624,0.331,1.267,0.673,1.735,1.209c0.526,0.594,0.78,1.384,1.033,2.144c0.887,2.651,1.968,5.252,3.216,7.757
					c0.302,0.604,0.614,1.228,0.624,1.9c0.02,1.277-1.043,2.271-2.027,3.099c-1.17,0.994-2.349,1.978-3.528,2.972
					c-0.205,0.166-0.419,0.341-0.672,0.409c-0.195,0.049-0.4,0.03-0.595,0c-1.13-0.117-2.251-0.244-3.381-0.36
					c-0.828-0.088-1.696-0.185-2.417-0.614c-1.51-0.906-1.881-2.894-2.047-4.648c0.975,1.413,2.68,2.3,4.395,2.27
					c0.263,0,0.556-0.039,0.721-0.244c0.312-0.419-0.175-0.955-0.584-1.277c-1.199-0.906-2.222-2.124-2.583-3.576
					c-0.341-1.423,0.078-3.099,1.267-3.966c-2.446-1.121-5.145-1.598-7.815-1.978c-1.052-0.146-2.105-0.292-3.148-0.458
					c-1.296,0.75-2.66,1.384-4.083,1.871c-2.504,0.848-5.126,1.218-7.767,1.472c-1.822,0.195-3.645,0.321-5.457,0.526
					c-3.859,0.439-7.854,1.306-10.983,3.528c-0.633,0.731-1.072,1.647-1.442,2.544c-0.799,1.92-1.393,3.927-1.773,5.974
					c-0.409,2.144-0.575,4.327-1.082,6.451c-0.517,2.115-1.403,4.219-3.002,5.71c-0.926,0.867-2.046,1.471-3.245,1.881
					c-1.394,0.468-2.904,0.673-4.385,0.702c-2.758,0.049-5.486-0.439-8.234-0.536c-2.748-0.088-5.632,0.263-7.903,1.813
					c-0.731,0.497-1.384,1.111-1.822,1.881c-0.731,1.286-0.77,2.845-0.935,4.317c-0.175,1.54-0.517,3.069-1.014,4.541
					c-0.127,0.38-0.283,0.779-0.604,1.023c-0.253,0.195-0.595,0.273-0.916,0.322c-1.432,0.244-3.148,0.214-4.151-0.731
					c-0.711,0.409-1.53,0.633-2.339,0.507c-0.828-0.137-1.598-0.711-1.9-1.471c-0.38,0.02-0.77,0.01-1.15-0.029
					c-0.341-0.039-0.692-0.107-0.994-0.283c-0.867-0.516-0.994-1.696-1.501-2.572c-0.341-0.565-0.848-1.014-1.277-1.52
					c-0.429-0.507-0.789-1.14-0.702-1.793c0.049-0.38,0.234-0.731,0.439-1.062c0.731-1.208,1.618-2.329,2.641-3.304
					c-0.244,1.15-0.117,2.368,0.341,3.45c0.234,0.556,0.653,1.14,1.257,1.189c0.633,0.049,1.091-0.468,1.413-1.052l0.078,0.039
					c2.251-4.297,4.073-8.809,5.447-13.467c0.117-0.419,0.253-0.857,0.536-1.189c0.205-0.244,0.487-0.419,0.76-0.585
					c0.283-0.166,0.565-0.322,0.848-0.478c0.215-0.107,0.429-0.224,0.653-0.331c0.653-0.322,1.316-0.614,1.998-0.877
					c0.175,0.974,0.624,2.202,1.608,2.193c0.633-0.01,1.101-0.546,1.54-0.994c2.407-2.485,6.324-3.381,9.579-2.183
					c-1.588-2.602-2.719-5.477-3.352-8.449c-3.898,3.206-7.991,6.198-12.279,8.878c-0.195,0.127-0.4,0.253-0.604,0.38
					c-0.273,0.176-0.546,0.341-0.819,0.507c-4.911,2.982-10.057,5.535-15.446,7.533c-11.606,4.298-24.391,5.857-36.485,3.235
					c-2.3-0.507-4.58-1.15-6.724-2.105c-7.582-3.362-12.99-10.447-15.436-18.428v-0.009c-0.439-1.423-0.779-2.875-1.023-4.337
					v-0.029c0.049,0.214,0.097,0.429,0.166,0.643c0.058,0.214,0.136,0.429,0.214,0.633c0.146,0.429,0.409,0.809,0.653,1.179
					c0.107,0.166,0.273,0.458,0.419,0.75c0.166,0.292,0.322,0.585,0.37,0.77c0.127,0.419,0.185,0.887,0.302,1.325
					c0.029,0.107,0.049,0.224,0.068,0.331c0.37,0.672,0.78,1.325,1.228,1.949c0.097,0.068,0.205,0.137,0.312,0.195
					c0.4,0.253,0.877,0.448,1.345,0.624c0.399,0.156,1.052,0.799,1.169,1.199c0.127,0.468,0.234,0.965,0.351,1.481
					c0.029,0.117,0.059,0.224,0.078,0.341c0.556,0.546,1.14,1.072,1.744,1.569c0.127,0.01,0.263,0.01,0.39,0.02
					c0.555,0.02,1.111,0.01,1.686-0.049c0.507-0.059,1.257,0.429,1.413,0.867c0.205,0.653,0.409,1.335,0.633,2.036
					c0.673,0.4,1.364,0.77,2.066,1.111c0.136-0.049,0.273-0.097,0.409-0.146c0.595-0.215,1.16-0.429,1.744-0.721
					c0.507-0.244,1.335,0.019,1.549,0.526c0.302,0.682,0.614,1.423,0.965,2.163c0.673,0.214,1.355,0.39,2.037,0.546
					c0.078,0.02,0.166,0.039,0.244,0.049c0.672-0.526,1.316-1.091,1.939-1.657c0.429-0.419,1.306-0.37,1.618,0.156
					c0.351,0.604,0.731,1.169,1.13,1.774c0.097,0.136,0.185,0.282,0.283,0.429c0.78,0.049,1.549,0.078,2.329,0.088
					c0.556-0.731,1.082-1.491,1.569-2.28c0.351-0.546,1.218-0.643,1.627-0.156c0.468,0.575,0.965,1.179,1.472,1.744
					c0.117,0.136,0.234,0.263,0.351,0.399c0.77-0.088,1.54-0.205,2.309-0.341c0.419-0.877,0.799-1.774,1.131-2.699
					c0.244-0.663,1.101-0.867,1.598-0.4c0.702,0.663,1.432,1.345,2.183,2.007c0.75-0.205,1.501-0.439,2.251-0.682
					c0.263-0.984,0.487-1.978,0.692-2.962c0.136-0.702,0.965-1.053,1.54-0.604c0.809,0.624,1.637,1.228,2.485,1.822
					c0.721-0.292,1.432-0.604,2.134-0.936c0.127-1.033,0.234-2.066,0.312-3.118c0.049-0.731,0.857-1.15,1.491-0.76
					c0.877,0.556,1.774,1.101,2.69,1.628c0.682-0.371,1.364-0.76,2.037-1.16c0.02-1.062,0.01-2.115-0.019-3.167
					c-0.02-0.74,0.731-1.238,1.403-0.897c0.936,0.478,1.891,0.945,2.855,1.384c0.643-0.438,1.286-0.887,1.92-1.354
					c-0.097-1.062-0.214-2.115-0.351-3.157c-0.107-0.741,0.594-1.296,1.306-1.023c0.984,0.37,1.978,0.731,2.992,1.053
					c0.594-0.507,1.169-1.033,1.744-1.549c-0.214-1.033-0.438-2.066-0.692-3.07c-0.185-0.721,0.468-1.335,1.179-1.16
					c1.014,0.253,2.037,0.478,3.06,0.663c0.536-0.565,1.052-1.15,1.569-1.744c-0.302-0.984-0.614-1.959-0.926-2.923
					c-0.224-0.682,0.38-1.384,1.101-1.286c1.014,0.127,2.027,0.253,3.031,0.361c0.497-0.614,0.984-1.228,1.471-1.852l-0.945-2.807
					c-0.214-0.663,0.39-1.393,1.101-1.345l2.943,0.205c0.487-0.614,0.974-1.238,1.462-1.842c-0.273-0.916-0.507-1.822-0.731-2.719
					c-0.166-0.643,0.487-1.374,1.169-1.325l2.768,0.214c0.283-0.312,0.556-0.624,0.838-0.935c0.253-0.273,0.497-0.546,0.76-0.819
					c-0.146-0.877-0.263-1.754-0.341-2.612c-0.059-0.604,0.663-1.286,1.296-1.208l2.573,0.283c0.585-0.556,1.16-1.082,1.754-1.598
					c0-0.819,0.039-1.618,0.097-2.407c0.049-0.555,0.848-1.13,1.423-1.062c0.799,0.097,1.578,0.195,2.339,0.282
					c0.614-0.487,1.238-0.955,1.881-1.413c0.156-0.721,0.341-1.413,0.546-2.085c0.137-0.487,0.994-0.965,1.51-0.916
					c0.721,0.068,1.423,0.137,2.105,0.185c0.653-0.429,1.325-0.828,1.998-1.218c0.292-0.585,0.604-1.14,0.955-1.647
					c0.244-0.36,1.13-0.77,1.598-0.74c0.633,0.02,1.247,0.009,1.842-0.03c0.01,0,0.01-0.009,0.01-0.009
					c0.702-0.351,1.403-0.692,2.115-1.023c0.419-0.39,0.867-0.741,1.325-1.052c0.322-0.205,1.257-0.458,1.657-0.526
					c0.526-0.078,1.033-0.195,1.52-0.351c0.39-0.166,0.78-0.322,1.169-0.468c0.01-0.01,0.02-0.01,0.02-0.01
					c3.284-1.277,6.617-2.436,9.901-3.703c2.641-1.014,5.243-2.115,7.757-3.401c6.471-3.323,12.542-8.264,15.319-14.91
					c-1.852,0.068-3.722-0.175-5.594-0.195c-1.247-0.01-2.485,0.068-3.723,0.244c-2.251,0.322-4.551,1.014-6.217,2.534
					c-1.354-0.565-2.514-1.598-3.206-2.875c-0.565,0.731-0.789,1.705-0.624,2.621c-2.163-0.75-3.557-3.235-3.079-5.477
					c0.253-1.189,0.974-2.348,0.721-3.538c-0.195-0.945-0.984-1.861-0.624-2.748c0.156-0.4,0.526-0.682,0.887-0.916
					c1.968-1.228,4.531-1.666,5.925-3.518c1.082-1.442,1.189-3.44,2.271-4.882c0.789-1.062,2.008-1.705,3.187-2.31
					c1.725-0.887,3.44-1.773,5.155-2.65c0.478-0.244,0.955-0.487,1.452-0.712h0.01c1.832-0.838,3.8-1.423,5.652-0.78
					c0.585,0.205,1.13,0.526,1.686,0.809c0.585,0.302,1.179,0.556,1.822,0.585l0.059,0.039c0.799-1.072,1.384-2.359,1.92-3.577
					c0.945-2.202,2.066-4.59,4.239-5.594c0.76-0.351,1.598-0.507,2.426-0.643c2.056-0.322,6.071-0.595,8.761-0.682
					C349.585,346.082,349.653,346.599,349.292,346.686z"/>
				<path style="fill:#2E2C43;" d="M176.008,441.407v0.029c-0.01-0.039-0.01-0.068-0.02-0.088c-0.01-0.098-0.01-0.107,0-0.049
					C175.989,441.319,175.999,441.358,176.008,441.407z"/>
				<path style="fill:#2E2C43;" d="M177.032,445.773l-0.302-0.848l-0.351-1.325c-0.126-0.429-0.185-0.887-0.253-1.335
					c-0.049-0.361-0.097-0.653-0.117-0.828C176.252,442.898,176.593,444.35,177.032,445.773z"/>
			</g>
		</g>
		<path style="fill:#2E2C43;" d="M339.664,345.01c-2.66,0.809-5.223,1.939-7.231,3.849c-0.712,0.682-1.364,1.471-1.705,2.397
			c-0.419,1.121-0.37,2.358-0.526,3.538c-0.049,0.39-0.127,0.78-0.214,1.169c-0.555-0.283-1.101-0.604-1.686-0.809
			c-1.852-0.643-3.82-0.058-5.652,0.78c0.799-1.14,1.345-2.524,1.842-3.839c0.838-2.241,1.832-4.687,3.956-5.798
			c0.741-0.39,1.569-0.585,2.397-0.76c2.037-0.429,6.022-0.896,8.712-1.121C339.918,344.387,340.015,344.903,339.664,345.01z"/>
		<path style="fill:#2E2C43;" d="M362.339,430.832c-0.358,1.359-1.271,2.477-2.047,3.637c-0.72,1.071-1.33,2.206-1.831,3.395
			c-0.062,0.158-0.144,0.327-0.286,0.42c-0.114,0.073-0.26,0.088-0.396,0.103c-2.197,0.181-4.401,0.176-6.602-0.004
			c-0.303-0.028-0.626-0.064-0.858-0.25c-0.222-0.187-0.33-0.465-0.418-0.735c-0.284-0.808-0.568-1.617-0.853-2.425
			c1.404,1.273,3.756,1.331,5.222,0.124c-0.341-1.03-1.518-1.464-2.464-1.984c-0.996-0.538-1.884-1.333-2.381-2.358
			c-0.454-0.919-0.546-2.047-0.162-2.988c-6.114,1.051-12.292,1.675-18.477,1.88c-0.725-0.343-1.45-0.696-2.175-1.039
			c2.581-3.423,4.611-7.264,5.998-11.315c5.949,1.042,12.063,0.762,18.068,1.5c0.343,0.046,0.686,0.091,1.003,0.225
			c0.386,0.161,0.72,0.46,1.014,0.761c2.161,2.21,3.331,5.296,5.698,7.283c0.745,0.625,1.644,1.186,1.962,2.11
			C362.53,429.703,362.484,430.29,362.339,430.832z"/>
		<path style="fill:#2E2C43;" d="M306.798,441.094c-0.137,3.83-0.575,7.64-1.306,11.392c-0.234,1.208-0.594,2.544-1.656,3.157
			c-0.78,0.448-1.744,0.37-2.641,0.292c-2.631-0.253-5.262-0.497-7.893-0.75c-1.374-0.127-3.001-0.136-3.8,0.984
			c-0.409,0.585-0.468,1.345-0.526,2.066c-0.175,2.3-0.477,4.58-0.897,6.85c-0.127,0.672-0.273,1.374-0.633,1.959
			c-0.477,0.77-1.296,1.286-2.154,1.569c-1.832,0.614-3.937,0.263-5.477-0.906c1.199-0.409,2.319-1.013,3.245-1.881
			c1.598-1.491,2.485-3.596,3.001-5.71c0.507-2.124,0.672-4.307,1.082-6.451c0.38-2.046,0.974-4.054,1.773-5.974
			c0.37-0.897,0.809-1.813,1.442-2.543c3.128-2.222,7.124-3.089,10.983-3.528C303.153,441.416,304.975,441.289,306.798,441.094z"/>
		<path style="fill:#2E2C43;" d="M427.437,326.787c-11.538-5.662-24.645-7.289-37.499-7.611c1.267-2.963,3.313-5.574,5.876-7.513
			c-7.728,3.089-14.228,8.478-19.685,14.832c-2.475,2.894-4.746,5.983-6.812,9.15c-6.607,10.135-11.577,21.263-17.96,31.554
			c-2.329,3.762-4.941,7.494-8.195,10.437c0.02,3.031-0.351,6.071-0.955,9.053c-1.082,5.272-2.923,10.398-5.447,15.163
			c0.059,0.721,0.088,1.442,0.097,2.163c9.735-8.576,24.236-11.431,36.504-7.221c0.76,0.263,1.52,0.556,2.261,0.867
			c1.276-8.965,6.344-17.531,14.15-22.131c7.786-4.6,18.272-4.746,25.717,0.438c2.621-7.416,6.997-14.452,13.536-18.817
			c6.529-4.375,15.455-5.623,22.345-1.851C448.817,342.701,438.984,332.439,427.437,326.787z M373.567,396.2
			c-7.26-22.199-4.609-47.682,7.114-67.893C371.52,349.659,369.016,373.378,373.567,396.2z M389.538,325.745
			c12.025,13.243,20.562,29.81,24.392,47.272C407.528,356.383,399.371,340.605,389.538,325.745z"/>
		<path style="fill:#2E2C43;" d="M277.424,328.756c-0.721-6.324-1.832-13.838-7.572-16.586c1.179,3.469,1.15,7.338-0.088,10.797
			c-10.905-13.662-26.623-23.398-43.716-27.071c-17.083-3.684-35.423-1.286-50.985,6.666c8.926,3.781,15.475,12.123,18.408,21.37
			c2.563,8.078,2.582,16.771,1.072,25.142c-0.224,1.208-0.478,2.407-0.75,3.596c8.887,1.666,17.092,6.714,22.569,13.906
			c4.697,6.139,7.348,13.808,7.533,21.536c0.039,1.296,0,2.602-0.107,3.908c8.156-3.956,17.21-6.607,26.233-5.73
			c9.024,0.877,17.969,5.769,22.072,13.847c6.636-3.43,15.261-2.456,21.039,2.232c3.284-1.277,6.617-2.436,9.901-3.703
			c-2.738-2.816-4.785-6.276-6.665-9.745C286.301,370.318,279.831,349.775,277.424,328.756z M197.496,349.649
			c20.133-15.036,45.996-27.237,71.576-21.215C243.307,325.228,219.13,336.961,197.496,349.649z M226.448,388.063
			c6.295-23.407,22.725-44.115,44.066-55.594C250.693,346.277,235.355,365.66,226.448,388.063z M271.918,342.067
			c-2.095,18.106-0.175,36.183,1.306,54.259C269.082,378.679,267.133,359.783,271.918,342.067z"/>
	</g>
</g>
</svg>
