<?xml version="1.0" encoding="utf-8"?>
<!-- Generator: Adobe Illustrator 27.5.0, SVG Export Plug-In . SVG Version: 6.00 Build 0)  -->
<svg version="1.1" xmlns="http://www.w3.org/2000/svg" xmlns:xlink="http://www.w3.org/1999/xlink" x="0px" y="0px"
	 viewBox="0 0 500 500" style="enable-background:new 0 0 500 500;" xml:space="preserve">
<g id="BACKGROUND">
	<rect style="fill:#FFFFFF; fill-opacity:0;" width="500" height="500"/>
</g>
<g id="OBJECTS">
	<g>
		<path style="fill:#2E2C43;" d="M262.29,214.854c-1.097-5.847-4.408-11.445-9.596-14.353c-3.986-2.226-8.679-2.706-13.206-3.361
			c-4.517-0.655-9.233-1.637-12.716-4.599c-1.582-1.334-2.831-3.03-4.374-4.415c-1.306-1.181-2.929-2.143-4.649-2.269
			c0.938,2.065,1.011,4.463,0.708,6.731c-0.327,2.459-1.068,4.849-1.527,7.302c-1.083,5.844-0.352,12.253,3.148,17.063
			c3.491,4.82,10.091,7.56,15.683,5.536c-2.735-0.873-4.974-3.154-5.789-5.905c2.188,2.625,5.817,3.524,9.218,3.736
			c3.41,0.202,6.877-0.13,10.192,0.658c5.518,1.312,10.119,5.932,11.409,11.463C262.48,226.741,263.387,220.691,262.29,214.854z
			 M247.062,210.592c-3.233-1.101-6.723-1.281-10.145-1.151c-2.73,0.102-5.514,0.385-8.154-0.319
			c-2.65-0.694-5.172-2.667-5.574-5.368c-0.193,2.597,0.237,5.237,1.244,7.631c-2.75-2.208-4.337-5.672-4.65-9.189
			c-0.311-3.457,0.551-6.955,2.036-10.087c0.878,2.829,3.276,5.057,5.962,6.363c2.92,1.42,6.177,1.928,9.375,2.437
			c3.197,0.509,6.456,1.066,9.337,2.548c4.908,2.543,8.251,7.87,8.396,13.4C253.293,213.824,250.305,211.692,247.062,210.592z"/>
		<path style="fill:#2E2C43;" d="M158.66,230.096c-0.011-0.04-0.032-0.08-0.043-0.12l0-0.01c-1.945-5.222-4.465-10.199-6.996-15.165
			l-0.456,0.233c-1.614,1.257-3.395,2.319-5.271,3.131c-0.338,0.139-0.468,0.535-0.279,0.841c1.5,2.452,2.991,4.894,4.432,7.387
			c3.637,5.801,6.9,11.873,1.901,18.13c-1.99,2.633-4.704,4.482-7.37,6.24c0,0,3.277-1.03,4.892-1.504
			c2.472-0.728,5.145-1.049,7.246-2.54c2.456-1.732,3.68-4.837,3.782-7.843C160.588,235.871,159.707,232.911,158.66,230.096z"/>
		<path style="fill:#2E2C43;" d="M199.126,196.257c-0.729-1.769-2.856-2.416-4.324-3.653c-1.324-1.1-2.181-2.765-3.719-3.559
			c-1.191-0.612-2.607-0.585-3.952-0.549c-4.797,0.146-9.585,0.291-14.382,0.436c-0.211,0.006-0.938,0.225-0.938,0.225
			c0.271,3.056-0.923,6.161-2.902,8.483c-1.025,1.122-3.064,2.652-1.568,4.169l1.097,0.453c6.008-0.709,11.864-2.61,17.161-5.541
			c0.406-0.221,0.906,0.067,0.868,0.54c-0.059,0.825,0.114,1.684,0.515,2.417c0.591,1.09,1.657,1.905,2.87,2.195
			c0.536,0.127,1.119,0.161,1.608,0.42c0.489,0.258,0.866,0.861,0.639,1.369c-0.143,0.305-0.459,0.484-0.767,0.623
			c-0.873,0.405-1.8,0.68-2.741,0.825c-0.51,0.074-0.685,0.701-0.294,1.032c0.894,0.76,2.07,1.201,3.245,1.191
			c1.114-0.019,2.189-0.399,3.18-0.907c0.981-0.498,1.919-1.135,2.599-1.996c1.031-1.293,1.409-2.97,1.758-4.586
			C199.339,198.652,199.587,197.38,199.126,196.257z"/>
		<path style="fill:#2E2C43;" d="M225.918,171.613c-2.822-1.523-5.03-4.147-6.034-7.205c-0.807-2.45-0.931-5.269-2.649-7.203
			c-1.977-2.228-5.389-2.49-7.919-4.001l-0.01,0c-1.904-3.305-2.207-7.576-4.958-10.226c-1.236-1.193-2.842-1.914-4.408-2.617
			c-2.388-1.052-4.766-2.115-7.144-3.178c-0.59-0.266-1.103,0.461-0.679,0.942c1.966,2.219,4.935,3.597,7.11,5.72
			c1.856,1.83,3.125,4.257,3.574,6.837c0.049,0.33-0.204,0.638-0.545,0.667c-0.962,0.105-1.91,0.321-2.825,0.656
			c-0.308,0.118-0.654-0.033-0.763-0.352c-0.738-2.11-1.516-4.179-3.103-5.714c-1.237-1.193-2.842-1.914-4.407-2.607
			c-2.378-1.063-4.766-2.125-7.145-3.188c-0.589-0.256-1.103,0.471-0.678,0.952c1.966,2.209,4.935,3.597,7.1,5.72
			c1.03,0.997,1.865,2.181,2.481,3.471c0.18,0.367-0.09,0.786-0.501,0.817c-0.391,0.02-0.782,0.051-1.173,0.091
			c-0.554-0.076-1.123-0.302-1.715-0.658c-0.418-0.25-1.408-0.455-1.773-0.205c-0.524,0.335-1.024,0.8-1.501,1.365
			c-0.781,0.091-1.562,0.191-2.342,0.312c-0.637-0.536-1.285-1.141-1.966-1.817c-0.485-0.49-1.489-0.483-1.785,0.107
			c-0.421,0.804-0.82,1.659-1.198,2.572c-0.77,0.151-1.539,0.311-2.308,0.482l-2.229-2.272c-0.547-0.558-1.526-0.372-1.748,0.357
			c-0.315,1.023-0.619,2.065-0.893,3.117c-0.768,0.201-1.526,0.412-2.283,0.642c-0.783-0.743-1.585-1.475-2.397-2.187
			c-0.576-0.507-1.501-0.152-1.672,0.606l-0.712,3.112c-0.747,0.251-1.483,0.511-2.219,0.791c-0.799-0.592-1.596-1.113-2.371-1.575
			c-0.562-0.347-1.422,0.168-1.565,0.835c-0.227,0.93-0.475,1.8-0.736,2.59c-0.715,0.3-1.43,0.61-2.145,0.94
			c-0.709-0.233-1.386-0.376-2.009-0.389c-0.443-0.019-1.188,0.674-1.408,1.101c-0.326,0.601-0.684,1.093-1.117,1.445
			c-0.347,0.18-0.694,0.35-1.041,0.53c-0.01,0.01-0.02,0.01-0.02,0.01c-0.01,0.01-0.03,0.011-0.04,0.021l-0.95,0.557
			c-0.132-0.037-0.274-0.093-0.426-0.16c-0.67-0.274-1.498-0.835-2.305-1.346c-0.358-0.232-0.771-0.281-1.048-0.113
			c-0.287,0.158-0.438,0.544-0.397,0.965c0.055,0.953,0.141,1.945,0.07,2.67c-0.016,0.171-0.042,0.323-0.069,0.454l-0.989,0.588
			c-0.069,0.042-0.15,0.034-0.211-0.025c-0.85-0.992-2.733-3.092-3.54-4.025c-4.848-6-9.062-12.73-12.07-19.833
			c-7.221-16.485-9.209-35.245-5.38-52.842l0.872-3.508c1.69-6.814,4.892-13.427,2.783-20.322c-0.099-0.329-0.208-0.647-0.347-0.965
			c-0.103,2.584-1.22,5.185-3.041,7c-1.968,1.93-4.632,3.024-7.305,3.365c-5.315,0.722-10.219-1.3-14.725-3.863
			c-1.57-0.893-3.102-1.847-4.572-2.773c-11.466-7.113-23.638-13.202-36.625-17.031c-0.557-0.166-1.113-0.302-1.679-0.448
			c-13.083-3.284-26.933-4.026-40.073-1.021c-0.459,0.103-0.625,0.689-0.275,1.001c5.62,5.207,6.733,14.709,2.378,21.041
			c-0.126,0.184-0.251,0.368-0.388,0.542c8.999,5.721,15.679,14.988,18.241,25.346c2.505,10.13,1.057,21.196-3.967,30.347
			c-0.173,0.306-0.032,0.694,0.303,0.816c18.305,7.064,32.029,24.855,34.206,44.364c0.04,0.381,0.438,0.621,0.796,0.471
			c18.751-7.763,40.915-6.726,58.889,2.678c0.367,0.191,0.42,0.692,0.106,0.971c0,0,0,0-0.01,0.01c-0.01,0.01-0.01,0.01-0.01,0.01
			c-0.01,0.01-0.02,0.02-0.029,0.031c-0.039,0.041-0.088,0.092-0.157,0.155c-0.127,0.134-0.303,0.319-0.508,0.546
			c-1.261,1.319-2.491,2.687-3.69,4.054c-0.516,0.616-0.951,0.889-0.75,0.502c0.182-0.346,0.374-0.673,0.586-1
			c-0.587,0.588-1.174,1.186-1.741,1.793c-0.505,0.274-1.03,0.549-1.576,0.805c-0.397,0.191-1.112,0.883-1.263,1.268
			c-0.236,0.559-0.422,1.136-0.587,1.733c-0.526,0.606-1.043,1.223-1.549,1.849c-0.586,0.246-1.193,0.483-1.809,0.72
			c-0.437,0.172-1.111,0.903-1.159,1.366c-0.084,0.645-0.147,1.3-0.18,1.963c-0.475,0.655-0.94,1.32-1.405,1.986
			c-0.647,0.228-1.303,0.466-2.001,0.685c-0.498,0.154-1.079,0.972-1.036,1.463c0.039,0.712,0.128,1.433,0.227,2.154
			c-0.424,0.684-0.838,1.368-1.231,2.071c-0.717,0.23-1.454,0.47-2.191,0.71c-0.528,0.174-1.068,1.022-0.903,1.561
			c0.2,0.728,0.42,1.465,0.66,2.202c-0.382,0.743-0.755,1.486-1.106,2.239l-2.31,0.763c-0.608,0.177-0.995,1.111-0.76,1.647
			c0.33,0.735,0.671,1.479,1.042,2.203c-0.311,0.782-0.622,1.563-0.913,2.344l-0.408,0.141c-0.666,0.249-1.383,0.478-2.04,0.736
			c-0.586,0.236-0.933,1.18-0.598,1.713c0.451,0.731,0.912,1.473,1.393,2.193c-0.24,0.79-0.481,1.579-0.711,2.369l-0.457,0.183
			c-0.696,0.279-1.371,0.578-2.066,0.868c-0.616,0.267-0.882,1.238-0.466,1.76c0.561,0.708,1.132,1.417,1.723,2.114
			c-0.18,0.798-0.35,1.606-0.509,2.414c-0.854,0.394-1.696,0.807-2.59,1.223c-0.625,0.308-0.83,1.297-0.335,1.787
			c0.671,0.686,1.351,1.361,2.041,2.006c-0.129,0.817-0.238,1.643-0.338,2.46c-0.852,0.444-1.724,0.909-2.605,1.384
			c-0.634,0.348-0.758,1.355-0.204,1.813c0.78,0.642,1.53,1.266,2.319,1.878c-0.059,0.815-0.108,1.63-0.147,2.455
			c-0.86,0.515-1.72,1.039-2.59,1.574c-0.642,0.399-0.696,1.414-0.083,1.83c0.695,0.474,1.381,0.938,2.095,1.391l0.48,0.299
			c0.011,0.813,0.023,1.636,0.054,2.459c-0.859,0.575-1.717,1.17-2.575,1.775c-0.621,0.448-0.605,1.462,0.058,1.827
			c0.897,0.509,1.844,1.007,2.801,1.474c0.062,0.822,0.143,1.643,0.235,2.465c-0.827,0.634-1.663,1.299-2.499,1.974
			c-0.6,0.498-0.533,1.51,0.198,1.813c0.996,0.436,1.981,0.852,2.975,1.238c0.132,0.82,0.274,1.64,0.426,2.46
			c-0.805,0.704-1.6,1.428-2.394,2.172c-0.609,0.538-0.362,1.536,0.388,1.778c1.023,0.345,2.047,0.68,3.069,0.994
			c0.202,0.808,0.404,1.607,0.616,2.405l-0.391,0.402c-0.616,0.649-1.261,1.309-1.857,1.977c-0.517,0.576-0.201,1.552,0.568,1.733
			c1.062,0.263,2.103,0.517,3.153,0.751c0.252,0.787,0.523,1.563,0.804,2.329l-0.38,0.452c-0.584,0.708-1.099,1.395-1.642,2.102
			c-0.476,0.625-0.089,1.579,0.697,1.699c1.069,0.173,2.128,0.336,3.187,0.489c0.321,0.755,0.642,1.5,0.993,2.244
			c-0.116,0.164-0.223,0.317-0.329,0.48l-1.438,2.227c-0.414,0.664,0.051,1.576,0.826,1.636c1.077,0.092,2.144,0.175,3.2,0.228
			c0.381,0.733,0.781,1.456,1.192,2.168c-0.508,0.927-1.006,1.865-1.493,2.811c-0.343,0.692,0.192,1.572,0.965,1.562
			c1.085,0.002,2.13,0.015,3.184-0.013c0.45,0.681,0.899,1.363,1.379,2.033c-0.417,0.955-0.813,1.93-1.189,2.904
			c-0.283,0.711,0.331,1.538,1.083,1.478l2.556-0.208l0.591-0.065c0.489,0.64,0.997,1.259,1.516,1.879
			c-0.316,0.993-0.611,1.985-0.896,2.986c-0.202,0.718,0.471,1.484,1.21,1.355c1.041-0.158,2.051-0.315,3.061-0.482
			c0.538,0.589,1.085,1.177,1.653,1.765c-0.225,0.99-0.45,1.99-0.645,2.98c-0.142,0.707,0.579,1.401,1.279,1.262l2.958-0.57l0.01,0
			c0.557,0.568,1.145,1.135,1.722,1.703c-0.156,0.968-0.311,1.936-0.447,2.895c-0.093,0.685,0.638,1.339,1.317,1.201l2.848-0.547
			l1.761,1.641c-0.116,0.937-0.212,1.874-0.309,2.79c-0.063,0.664,0.677,1.308,1.327,1.191c0.92-0.165,1.84-0.319,2.74-0.453
			c0.587,0.547,1.174,1.104,1.751,1.652c-0.077,0.896-0.145,1.772-0.212,2.647c-0.044,0.634,0.686,1.268,1.307,1.191
			c0.881-0.113,1.743-0.196,2.605-0.269c0.587,0.567,1.154,1.135,1.722,1.703c-0.058,0.845-0.107,1.67-0.146,2.485
			c-0.035,0.584,0.655,1.248,1.248,1.233c0.833-0.032,1.656-0.043,2.46-0.024c0.548,0.588,1.096,1.177,1.623,1.776
			c-0.05,0.795-0.089,1.569-0.11,2.323c-0.026,0.553,0.625,1.249,1.169,1.305c0.775,0.07,1.531,0.181,2.278,0.302
			c0.499,0.63,0.987,1.26,1.476,1.89c-0.041,0.734-0.072,1.458-0.084,2.152c-0.007,0.502,0.575,1.25,1.071,1.388
			c0.698,0.193,1.367,0.416,2.016,0.67c0.439,0.661,0.868,1.333,1.278,2.006c-0.012,0.673-0.025,1.337-0.019,1.979
			c0.002,0.462,0.515,1.262,0.923,1.482c0.591,0.316,1.132,0.663,1.654,1.042c0.37,0.693,0.72,1.407,1.05,2.122
			c-0.003,0.633,0.012,1.235,0.058,1.827c0.011,0.432,0.446,1.294,0.745,1.588c0.443,0.44,0.817,0.913,1.172,1.406
			c0.26,0.736,0.5,1.473,0.721,2.221c0.003,0.12,0.006,0.231,0.019,0.351c0.032,0.461,0.104,0.911,0.157,1.372
			c0.041,0.401,0.356,1.327,0.506,1.694c0.246,0.576,0.402,1.175,0.529,1.784c0.012,0.06,0.023,0.13,0.035,0.19
			c0.046,0.22,0.082,0.45,0.118,0.68c0.001,0.05,0.012,0.09,0.013,0.11c0,0.01,0,0.01,0.011,0.02l0,0.01c0,0.01,0,0.01,0,0.01
			c0.099,0.701,1.112,0.654,1.174-0.051c0.92-11.655-2.896-23.518-8.61-33.845c-6.569-11.891-15.568-22.222-23.677-33.109
			c-8.109-10.897-15.531-22.766-18.2-36.085c-2.553-12.74-0.056-27.098,8.88-36.422c0.235-0.247,0.627-0.227,0.864,0.018
			c0.981,1.039,2.169,1.892,3.431,2.542c2.005,1.022,4.19,1.608,6.393,2.093c0.515,0.117,0.634,0.807,0.179,1.08
			c-2.334,1.387-4.09,3.753-4.694,6.4c-0.198,0.869-0.285,1.765-0.625,2.598c-0.33,0.822-0.993,1.593-1.873,1.746
			c-0.53,0.094-1.119-0.141-1.471-0.544c-0.28-0.314-0.772-0.311-0.973,0.046c-0.757,1.386-0.974,3.079-0.832,4.672
			c0.162,1.984,0.815,3.896,1.347,5.81c0.911,3.331,1.482,6.751,1.693,10.201c0.02,0.371-0.008,0.834-0.335,1.003
			c-0.317,0.159-0.684-0.052-0.971-0.266c-0.594-0.437-1.179-0.903-1.734-1.401c-0.391-0.352-1.005-0.034-0.981,0.497
			c0.12,1.905,1.103,3.778,2.679,4.882c1.739,1.22,4.096,1.469,6.064,0.675c0.73,0.272,1.535,0.311,2.283,0.121
			c0.788-0.192,1.5-0.632,2.026-1.249c0.962,0.306,2.174-0.217,2.723-1.126c0.655-1.082,0.548-2.485,0.124-3.689
			c-0.423-1.204-1.135-2.281-1.657-3.442c-1.525-3.395-1.342-7.508,0.472-10.749c0.259-0.459,0.539-0.898,0.849-1.318
			c0.029-0.041,0.068-0.082,0.107-0.113c1.366-1.161,4.137-3.513,4.137-3.513c4.724-3.709,10.407-8.78,8.758-15.396
			c-0.762-3.003-2.53-5.719-4.08-8.521c-1.536-2.672-3.014-5.395-4.481-8.109c-0.179-0.317-0.019-0.713,0.33-0.832
			c2.121-0.718,4.155-1.676,6.062-2.871l0.456-0.233c-0.011-0.03-0.031-0.049-0.042-0.079c1.872-1.023,3.669-2.205,5.342-3.525
			c0.207-0.166,0.498-0.174,0.713-0.009c3.672,2.887,7.829,5.149,12.228,6.691c0.425,0.14,0.56,0.689,0.216,0.979
			c-1.777,1.564-2.447,4.373-1.376,6.515c0.254,0.506,0.6,1.069,0.404,1.606c-0.244,0.669-1.205,0.775-1.856,0.471
			c-0.651-0.305-1.158-0.864-1.799-1.189c-0.641-0.325-1.585-0.3-1.909,0.352c-0.219,0.457-0.036,0.925,0.306,1.328
			c0.228,0.285,0.526,0.539,0.813,0.732c1.044,0.736,2.098,1.472,3.161,2.197c0.982,0.667,2.004,1.344,3.164,1.544
			c1.877,0.323,3.71-0.619,5.374-1.527c1.268-0.686,2.633-1.485,3.14-2.834c0.281-0.761,0.24-1.593,0.208-2.406
			c-0.106-2.137-0.202-4.284-0.299-6.421c-0.058-1.053-0.106-2.136-0.563-3.089c-0.553-1.161-1.618-1.967-2.614-2.794
			c-3.223-2.658-6.009-5.849-8.211-9.398c0,0-1.615-2.238-1.622-2.88c0.1-1.931,1.998-3.086,2.781-4.653
			c1.264-1.982,2.081-4.152,2.653-6.458c0,0,1.028-9.84,3.107-13.701c1.695-3.168,4.748-5.468,8.078-6.811
			c2.713-1.096,5.593-1.613,8.509-1.86c0.27-0.027,0.476-0.223,0.53-0.486c0.352-1.898,1.148-3.716,2.217-5.1
			c-0.767,2.149-1.398,4.536-1.458,6.848l0.003,0.1c0.137,1.393,0.504,2.739,1.238,3.925c1.825,2.945,5.412,4.147,8.439,5.836
			c3.465,1.928,6.452,4.733,8.588,8.072c0.157,0.257,0.471,0.349,0.749,0.221c0.912-0.446,1.825-0.891,2.737-1.337
			c0.397-0.191,0.433-0.724,0.084-1.007c-2.041-1.614-2.797-4.788-1.501-7.092c-0.479,0.876-1.469,1.424-2.473,1.461
			c-0.994,0.036-1.979-0.4-2.71-1.084c-1.401-1.319-1.807-3.428-1.546-5.343c0.008-0.071,0.016-0.141,0.034-0.222
			c0.328-2.048,2.849-2.837,4.372-1.42c0.01,0.01,0.021,0.02,0.031,0.029c1.143,1.075,2.404,2.056,3.252,3.37
			c0.66,1.017,1.025,2.303,0.794,3.464c-0.061,0.343-0.183,0.678-0.366,0.984c1.703-0.165,3.475,0.391,4.771,1.522
			c1.038,0.897,1.763,2.133,2.06,3.472c0.092,0.449,0.619,0.637,0.963,0.346c1.424-1.233,2.754-2.613,3.26-4.394
			c0.341-1.184,0.278-2.428,0.376-3.656c0.075-0.996,0.278-2.036,0.829-2.854C226.334,172.165,226.234,171.776,225.918,171.613z
			 M74.457,166.085c3.465-25.724,14.979-50.563,32.403-69.832C91.671,117.252,80.688,140.892,74.457,166.085z M106.694,90.663
			c-0.21,0.046-0.42,0.091-0.629,0.137c-21.954,4.703-42.583,15.136-59.596,29.774c12.241-12.012,27.176-21.252,43.294-27.117
			c4.536-1.666,9.191-3.033,13.893-4.15c-22.075-11.425-47.454-13.995-71.987-14.97c26.538-0.715,54.333,2.053,77.633,15.787
			L106.694,90.663z"/>
		<path style="fill:#2E2C43;" d="M127.563,178.614c-0.029,0.031-0.049,0.051-0.079,0.062c-1.276,1.148-2.53,2.336-3.744,3.563
			c-0.212,0.327-0.405,0.653-0.587,1c-0.201,0.387,0.234,0.114,0.75-0.502c1.2-1.367,2.429-2.735,3.691-4.054
			c0.205-0.226,0.381-0.412,0.508-0.546c0.069-0.062,0.118-0.114,0.157-0.155C128.023,178.18,127.798,178.387,127.563,178.614z"/>
		<path style="fill:#2E2C43;" d="M160.808,72.459c-1.365,4.244-3.95,7.958-6.21,11.804c-13.645,23.228-14.961,53.144-3.865,77.622
			c-2.111,1.09-4.19,2.259-6.217,3.487c-19.525-21.466-27.028-53.3-18.969-81.193c1.262-4.352,2.867-8.653,3.151-13.17
			c0.284-4.517-1.03-9.425-4.608-12.194c3.044,3.456,1.802,9.354-1.799,12.221c-3.611,2.877-8.736,3.151-13.178,1.912
			c-4.432-1.24-8.375-3.779-12.315-6.166C85.41,59.918,73.275,54.129,60.439,50.688c-0.979-1.34-2.037-2.618-3.174-3.824
			c6.416-5.09,7.7-15.499,2.719-21.998c13.663,0.125,27.12,4.252,39.133,10.758c9.771,5.289,18.637,12.098,26.76,19.669
			c1.874,1.759,3.719,3.549,5.514,5.37c3.178,3.231,6.321,6.625,10.257,8.882c3.936,2.257,8.894,3.253,13.034,1.387
			c4.14-1.866,6.762-7.188,4.688-11.221C162.123,63.214,162.174,68.225,160.808,72.459z"/>
		<g>
			<g>
				<path style="fill:#2E2C43;" d="M128.103,178.138c-0.127,0.134-0.303,0.319-0.508,0.546c-1.261,1.319-2.491,2.687-3.691,4.054
					c-0.516,0.616-0.951,0.889-0.75,0.502c0.182-0.346,0.374-0.673,0.587-1c0.289-0.469,0.609-0.92,0.949-1.341
					c0.243-0.318,1.03-0.921,1.366-1.15c0.493-0.334,0.976-0.689,1.428-1.072c0.03-0.011,0.049-0.032,0.079-0.062
					C127.749,178.459,127.926,178.303,128.103,178.138z"/>
			</g>
		</g>
	</g>
</g>
</svg>
